# xmcd CD database file
#
# Track frame offsets:
#	150
#	16211
#	33044
#	52252
#	68394
#	86024
#	102776
#	118888
#	135194
#	151365
#	173942
#	188912
#	206233
#	227548
#	246815
#	263583
#	283009
#
# Disc length: 4000 seconds
#
# Revision: 0
# Processed by: cddbd v1.5.1PL0 Copyright (c) Steve Scherf et al.
# Submitted via: CDex 1.51
#
DISCID=e00f9e11
DTITLE=Various Artist - Top Hits USA RJ30
DYEAR=2004
DGENRE=Jazz
TTITLE0=Fattburger - Work To Do (Radio Edit)
TTITLE1=Vernon Nellie and G-Fire - LFO (Radio Edit)
TTITLE2=Grady Nichols - Tuesday Morning
TTITLE3=Brenda Russell - I Know You By Heart (Radio Edit)
TTITLE4=Michael Lington - Two Of A Kind
TTITLE5=Vlad - Little Star (Radio Edit)
TTITLE6=AJ - Joy Ride
TTITLE7=Joyce Cooling - Camelback (Radio Edit)
TTITLE8=Jeff Kashiwa - Peace Of Mind (Radio Edit)
TTITLE9=Marc Antoine - Cubanova
TTITLE10=Seal - Walk On By
TTITLE11=George Collochio - The Call (Radio Edit)
TTITLE12=Positive Flow - The City Street
TTITLE13=Clifford Adams - Joanna
TTITLE14=Steve Oliver - Chips And Salsa (Remix)Swing Out 
TTITLE15=Swing Out Sister - Love Won't Let You Down
TTITLE16=Chris Botti - Ordinary Love (Radio Edit)
EXTD=YEAR: 2004
EXTT0=
EXTT1=
EXTT2=
EXTT3=
EXTT4=
EXTT5=
EXTT6=
EXTT7=
EXTT8=
EXTT9=
EXTT10=
EXTT11=
EXTT12=
EXTT13=
EXTT14=
EXTT15=
EXTT16=
PLAYORDER=
